<svg xmlns="http://www.w3.org/2000/svg" viewBox="0 0 100 100">
  <path d="M99.5 49.93q0-1.06-.051-2.122V7.75L88.371 18.829A49.43 49.43 0 0 0 10.692 20.2l18.15 18.343A24.063 24.063 0 0 1 36.2 30.3a21.909 21.909 0 0 1 13.872-4.5 4.959 4.959 0 0 1 1.756.252 23.934 23.934 0 0 1 18.3 11.021L57.273 49.919c16.276-.065 34.663-.1 42.222.009" style="fill:#000" />
  <path d="M49.787.646q-1.06 0-2.122.05H7.607l11.078 11.079a49.428 49.428 0 0 0 1.372 77.678L38.4 71.3a24.027 24.027 0 0 1-8.25-7.354 21.909 21.909 0 0 1-4.5-13.872 4.981 4.981 0 0 1 .254-1.755 23.935 23.935 0 0 1 11.019-18.3l12.852 12.854C49.711 26.6 49.674 8.21 49.783.65" style="fill:#000" />
  <path d="M.5 50.069q0 1.061.051 2.121v40.059L11.629 81.17a49.431 49.431 0 0 0 77.679-1.37l-18.15-18.345a24.049 24.049 0 0 1-7.355 8.25 21.9 21.9 0 0 1-13.871 4.5 4.953 4.953 0 0 1-1.755-.252 23.934 23.934 0 0 1-18.3-11.021l12.85-12.851c-16.276.065-34.663.1-42.222-.009" style="fill:#000" />
</svg>